<svg aria-hidden="true" style="width:0;height:0;position:absolute;overflow:hidden" xmlns="http://www.w3.org/2000/svg"><defs><symbol id="icon-ep_arrow-right-bold-1" viewBox="0 0 32 32"><path d="M10.587 3.272c-.361.362-.585.861-.585 1.413s.223 1.051.585 1.413l9.899 9.901-9.899 9.899a2 2 0 0 0 2.828 2.825l-.001.001 11.315-11.312c.361-.362.585-.861.585-1.413s-.224-1.052-.585-1.413L13.414 3.271c-.362-.361-.861-.585-1.413-.585s-1.052.224-1.413.585z"/></symbol><symbol id="icon-eva_menu-fill-1" viewBox="0 0 32 32"><path fill="#fff" style="fill:var(--color1,#fff)" d="M26.733 14.667H5.267c-.7 0-1.267.567-1.267 1.266v.134c0 .7.567 1.266 1.267 1.266h21.466c.7 0 1.267-.567 1.267-1.266v-.134c0-.7-.567-1.266-1.267-1.266zm0 6.666H5.267C4.567 21.333 4 21.9 4 22.6v.133c0 .7.567 1.267 1.267 1.267h21.466c.7 0 1.267-.567 1.267-1.267V22.6c0-.7-.567-1.267-1.267-1.267zm0-13.333H5.267C4.567 8 4 8.567 4 9.267V9.4c0 .7.567 1.267 1.267 1.267h21.466c.7 0 1.267-.567 1.267-1.267v-.133C28 8.567 27.433 8 26.733 8z"/></symbol><symbol id="icon-ep_close-1" viewBox="0 0 32 32"><path fill="#fcfcfc" style="fill:var(--color2,#fcfcfc)" d="M23.884 6.706 16 14.59 8.116 6.706a.996.996 0 0 0-1.672.736c0 .26.099.497.262.674l-.001-.001 7.88 7.884-7.882 7.882a.998.998 0 0 0 1.41 1.412l7.886-7.882 7.884 7.884a.996.996 0 0 0 1.672-.736.992.992 0 0 0-.262-.674l.001.001-7.884-7.884 7.884-7.886a.998.998 0 0 0-1.41-1.412v.002z"/></symbol><symbol id="icon-clarity_close-line-1" viewBox="0 0 32 32"><path d="m17.253 15.752 7.371-7.32a.88.88 0 0 0-.639-1.456h-.001l-.035-.001a.89.89 0 0 0-.581.215l.001-.001-7.37 7.318-7.37-7.326a.895.895 0 0 0-1.523.627v.001a.88.88 0 0 0 .261.626l7.378 7.318-7.376 7.315a.882.882 0 0 0-.052 1.296.887.887 0 0 0 1.303-.05l.001-.001 7.376-7.317 7.37 7.317a.892.892 0 0 0 1.467-.633v-.002l.001-.033a.882.882 0 0 0-.214-.576l.001.001-7.37-7.317z"/></symbol></defs></svg>