<svg aria-hidden="true" style="width:0;height:0;position:absolute;overflow:hidden" xmlns="http://www.w3.org/2000/svg"><defs><symbol id="icon-burger" viewBox="0 0 55 32"><path d="M51.961 13.714H2.896c-1.6 0-2.896.971-2.896 2.171v.229c0 1.2 1.296 2.171 2.896 2.171h49.065c1.6 0 2.896-.971 2.896-2.171v-.229c0-1.2-1.296-2.171-2.896-2.171zm0 13.715H2.896C1.296 27.429 0 28.4 0 29.6v.229C0 31.029 1.296 32 2.896 32h49.065c1.6 0 2.896-.971 2.896-2.171V29.6c0-1.2-1.296-2.171-2.896-2.171zm0-27.429H2.896C1.296 0 0 .971 0 2.171V2.4c0 1.2 1.296 2.171 2.896 2.171h49.065c1.6 0 2.896-.971 2.896-2.171v-.229C54.857.971 53.561 0 51.961 0z"/></symbol><symbol id="icon-cross" viewBox="0 0 32 32"><path d="M18.149 16 30.78 3.367a1.525 1.525 0 0 0-2.152-2.147l.002-.002-12.631 12.633L3.366 1.204A1.531 1.531 0 1 0 1.2 3.364l.001.001L13.85 15.998 1.201 28.631a1.525 1.525 0 1 0 2.147 2.151l.002-.002 12.649-12.633L28.632 30.78a1.525 1.525 0 0 0 2.147-2.152l.002.002-12.633-12.633z"/></symbol><symbol id="icon-arrow-right" viewBox="0 0 82 32"><path d="M81.414 17.414c.362-.362.586-.862.586-1.414s-.224-1.052-.586-1.414L68.686 1.858a2 2 0 1 0-2.829 2.827l.001.001L77.172 16 65.858 27.314a2 2 0 0 0 2.829 2.827l-.001.001 12.728-12.728zM0 18h80v-4H0v4z"/></symbol><symbol id="icon-arrow-right-btn" viewBox="0 0 16 32"><path d="M.611.704A2.587 2.587 0 0 0 0 2.379v.028-.001c0 .637.221 1.248.611 1.699l10.346 11.91L.608 27.919a2.596 2.596 0 0 0-.586 1.648v.05-.003c.003.63.224 1.232.611 1.68s.912.698 1.459.704a1.947 1.947 0 0 0 1.47-.673l.002-.002 11.821-13.61c.382-.45.614-1.037.614-1.679v-.021.001a2.61 2.61 0 0 0-.611-1.702L3.567.702A1.958 1.958 0 0 0 2.09-.002h-.001c-.554 0-1.088.256-1.482.704z"/></symbol><symbol id="icon-facebook" viewBox="0 0 16 32"><path d="M14.143 15.971H10.11v14.865H3.998V15.971H1.092v-5.222h2.906V7.367c0-2.417 1.142-6.204 6.167-6.204l4.527.019v5.072h-3.284c-.538 0-1.297.272-1.297 1.425v3.073h4.567l-.534 5.219z"/></symbol><symbol id="icon-github" viewBox="0 0 32 32"><path d="M16 0C7.211 0 0 7.211 0 16c0 7.499 5.262 14.312 12.25 16v-5.293a3.921 3.921 0 0 1-2.062-.06l.028.007c-.946-.278-1.714-.909-2.285-1.869-.363-.613-1.008-1.28-1.68-1.23l-.165-1.867c1.454-.125 2.71.886 3.456 2.139.333.558.715.885 1.205 1.029.472.141.981.074 1.573-.136.149-1.186.693-1.629 1.104-2.256-4.168-.621-5.829-2.832-6.488-4.576-.874-2.318-.405-5.213 1.139-7.043.03-.035.085-.128.064-.192-.709-2.141.154-3.91.186-4.098.818.24.95-.243 3.552 1.336l.448.27c.189.112.128.048.317.032a13.246 13.246 0 0 1 3.349-.469h.01c1.136.014 2.272.176 3.403.483l.146.016c-.013-.003.04-.01.128-.062 3.248-1.968 3.131-1.325 4.003-1.608.032.189.882 1.987.182 4.099-.096.291 2.816 2.957 1.202 7.235-.659 1.744-2.32 3.957-6.486 4.578.534.816 1.176 1.248 1.173 2.928v6.606c6.986-1.688 12.25-8.501 12.25-16 0-8.789-7.211-16-16-16z"/></symbol><symbol id="icon-telegram" viewBox="0 0 44 32"><path d="m17.342 21.048-.674 8.86c.966 0 1.384-.388 1.886-.852l4.526-4.04 9.38 6.414c1.72.894 2.934.422 3.398-1.478L42.016 3.02c.546-2.374-.92-3.302-2.594-2.72L3.226 13.234C.756 14.13.794 15.414 2.808 16l9.252 2.684L33.554 6.132c1.012-.626 1.932-.28 1.174.346l-17.386 14.57z"/></symbol><symbol id="icon-close" viewBox="0 0 32 32"><path d="m17.253 16 7.37-7.37a.89.89 0 0 0-1.256-1.252l.001-.001L16 14.747 8.63 7.369a.893.893 0 0 0-1.262 1.262l-.001-.001L14.745 16l-7.376 7.368a.89.89 0 1 0 1.252 1.256l.001-.001 7.376-7.37 7.37 7.37a.89.89 0 0 0 1.254-1.256l.001.001L17.253 16z"/></symbol></defs></svg>