<svg aria-hidden="true" style="position: absolute; width: 0; height: 0; overflow: hidden;" version="1.1" xmlns="http://www.w3.org/2000/svg" xmlns:xlink="http://www.w3.org/1999/xlink">
<defs>
<symbol id="icon-burger" viewBox="0 0 55 32">
<path d="M51.961 13.714h-49.065c-1.6 0-2.896 0.971-2.896 2.171v0.229c0 1.2 1.296 2.171 2.896 2.171h49.065c1.6 0 2.896-0.971 2.896-2.171v-0.229c0-1.2-1.296-2.171-2.896-2.171zM51.961 27.429h-49.065c-1.6 0-2.896 0.971-2.896 2.171v0.229c0 1.2 1.296 2.171 2.896 2.171h49.065c1.6 0 2.896-0.971 2.896-2.171v-0.229c0-1.2-1.296-2.171-2.896-2.171zM51.961 0h-49.065c-1.6 0-2.896 0.971-2.896 2.171v0.229c0 1.2 1.296 2.171 2.896 2.171h49.065c1.6 0 2.896-0.971 2.896-2.171v-0.229c0-1.2-1.296-2.171-2.896-2.171z"></path>
</symbol>
<symbol id="icon-cross" viewBox="0 0 32 32">
<path d="M18.149 16l12.631-12.633c0.224-0.264 0.36-0.608 0.36-0.984 0-0.842-0.683-1.525-1.525-1.525-0.376 0-0.721 0.136-0.987 0.362l0.002-0.002-12.631 12.633-12.633-12.647c-0.281-0.308-0.684-0.501-1.133-0.501-0.846 0-1.531 0.686-1.531 1.531 0 0.448 0.192 0.85 0.498 1.13l0.001 0.001 12.649 12.633-12.649 12.633c-0.331 0.281-0.54 0.698-0.54 1.164 0 0.842 0.683 1.525 1.525 1.525 0.466 0 0.883-0.209 1.162-0.538l0.002-0.002 12.649-12.633 12.633 12.633c0.264 0.224 0.608 0.36 0.984 0.36 0.842 0 1.525-0.683 1.525-1.525 0-0.376-0.136-0.721-0.362-0.987l0.002 0.002-12.633-12.633z"></path>
</symbol>
<symbol id="icon-arrow-right" viewBox="0 0 82 32">
<path d="M81.414 17.414c0.362-0.362 0.586-0.862 0.586-1.414s-0.224-1.052-0.586-1.414l-12.728-12.728c-0.364-0.377-0.874-0.611-1.439-0.611-1.105 0-2 0.895-2 2 0 0.565 0.234 1.074 0.61 1.438l0.001 0.001 11.314 11.314-11.314 11.314c-0.347 0.359-0.561 0.849-0.561 1.389 0 1.105 0.895 2 2 2 0.54 0 1.030-0.214 1.39-0.562l-0.001 0.001 12.728-12.728zM0 18h80v-4h-80v4z"></path>
</symbol>
<symbol id="icon-arrow-right-btn" viewBox="0 0 16 32">
<path d="M0.611 0.704c-0.38 0.449-0.611 1.035-0.611 1.675 0 0.009 0 0.019 0 0.028v-0.001c0 0.637 0.221 1.248 0.611 1.699l10.346 11.91-10.349 11.904c-0.365 0.446-0.586 1.021-0.586 1.648 0 0.017 0 0.033 0 0.050l-0-0.003c0.003 0.63 0.224 1.232 0.611 1.68s0.912 0.698 1.459 0.704c0.587-0.001 1.113-0.262 1.47-0.673l0.002-0.002 11.821-13.61c0.382-0.45 0.614-1.037 0.614-1.679 0-0.007-0-0.014-0-0.021v0.001c0-0.64-0.221-1.251-0.611-1.702l-11.821-13.61c-0.357-0.425-0.885-0.696-1.477-0.704l-0.001-0c-0.554 0-1.088 0.256-1.482 0.704z"></path>
</symbol>
<symbol id="icon-facebook" viewBox="0 0 16 32">
<path d="M14.143 15.971h-4.033v14.865h-6.112v-14.865h-2.906v-5.222h2.906v-3.382c0-2.417 1.142-6.204 6.167-6.204l4.527 0.019v5.072h-3.284c-0.538 0-1.297 0.272-1.297 1.425v3.073h4.567l-0.534 5.219z"></path>
</symbol>
<symbol id="icon-github" viewBox="0 0 32 32">
<path d="M16 0c-8.789 0-16 7.211-16 16 0 7.499 5.262 14.312 12.25 16v-5.293c-0.276 0.070-0.593 0.109-0.919 0.109-0.398 0-0.781-0.059-1.143-0.169l0.028 0.007c-0.946-0.278-1.714-0.909-2.285-1.869-0.363-0.613-1.008-1.28-1.68-1.23l-0.165-1.867c1.454-0.125 2.71 0.886 3.456 2.139 0.333 0.558 0.715 0.885 1.205 1.029 0.472 0.141 0.981 0.074 1.573-0.136 0.149-1.186 0.693-1.629 1.104-2.256-4.168-0.621-5.829-2.832-6.488-4.576-0.874-2.318-0.405-5.213 1.139-7.043 0.030-0.035 0.085-0.128 0.064-0.192-0.709-2.141 0.154-3.91 0.186-4.098 0.818 0.24 0.95-0.243 3.552 1.336l0.448 0.27c0.189 0.112 0.128 0.048 0.317 0.032 1.003-0.282 2.157-0.452 3.349-0.469l0.010-0c1.136 0.014 2.272 0.176 3.403 0.483l0.146 0.016c-0.013-0.003 0.040-0.010 0.128-0.062 3.248-1.968 3.131-1.325 4.003-1.608 0.032 0.189 0.882 1.987 0.182 4.099-0.096 0.291 2.816 2.957 1.202 7.235-0.659 1.744-2.32 3.957-6.486 4.578 0.534 0.816 1.176 1.248 1.173 2.928v6.606c6.986-1.688 12.25-8.501 12.25-16 0-8.789-7.211-16-16-16z"></path>
</symbol>
<symbol id="icon-telegram" viewBox="0 0 44 32">
<path d="M17.342 21.048l-0.674 8.86c0.966 0 1.384-0.388 1.886-0.852l4.526-4.040 9.38 6.414c1.72 0.894 2.934 0.422 3.398-1.478l6.158-26.932c0.546-2.374-0.92-3.302-2.594-2.72l-36.196 12.934c-2.47 0.896-2.432 2.18-0.418 2.766l9.252 2.684 21.494-12.552c1.012-0.626 1.932-0.28 1.174 0.346l-17.386 14.57z"></path>
</symbol>
</defs>
</svg>
